<?xml version="1.0" encoding="UTF-8" standalone="no"?>
<!DOCTYPE svg PUBLIC "-//W3C//DTD SVG 1.1//EN"
 "http://www.w3.org/Graphics/SVG/1.1/DTD/svg11.dtd">
<!-- Generated by graphviz version 3.0.0 (20220226.1711)
 -->
<!-- Title: dependencies Pages: 1 -->
<svg width="1778pt" height="247pt"
 viewBox="0.00 0.00 1778.00 246.80" xmlns="http://www.w3.org/2000/svg" xmlns:xlink="http://www.w3.org/1999/xlink">
<g id="graph0" class="graph" transform="scale(1 1) rotate(0) translate(4 242.8)">
<title>dependencies</title>
<polygon fill="white" stroke="transparent" points="-4,4 -4,-242.8 1774,-242.8 1774,4 -4,4"/>
<text text-anchor="middle" x="885" y="-8.2" font-family="sans-serif" font-size="14.00">dependencies</text>
<g id="clust1" class="cluster">
<title>cluster_AppModule</title>
<polygon fill="none" stroke="black" stroke-dasharray="1,5" points="8,-32.8 8,-230.8 1762,-230.8 1762,-32.8 8,-32.8"/>
</g>
<g id="clust14" class="cluster">
<title>cluster_AppModule_imports</title>
<polygon fill="none" stroke="black" points="1610,-40.8 1610,-92.8 1754,-92.8 1754,-40.8 1610,-40.8"/>
</g>
<g id="clust16" class="cluster">
<title>cluster_AppModule_bootstrap</title>
<polygon fill="none" stroke="black" points="805,-170.8 805,-222.8 929,-222.8 929,-170.8 805,-170.8"/>
</g>
<g id="clust2" class="cluster">
<title>cluster_AppModule_declarations</title>
<polygon fill="none" stroke="black" points="16,-40.8 16,-92.8 1602,-92.8 1602,-40.8 16,-40.8"/>
</g>
<!-- AppComponent -->
<g id="node1" class="node">
<title>AppComponent</title>
<polygon fill="#ffffb3" stroke="black" points="1593.94,-84.8 1488.06,-84.8 1488.06,-48.8 1593.94,-48.8 1593.94,-84.8"/>
<text text-anchor="middle" x="1541" y="-62.6" font-family="Times,serif" font-size="14.00">AppComponent</text>
</g>
<!-- AppModule -->
<g id="node12" class="node">
<title>AppModule</title>
<polygon fill="#8dd3c7" stroke="black" points="908.66,-149.8 905.66,-153.8 884.66,-153.8 881.66,-149.8 825.34,-149.8 825.34,-113.8 908.66,-113.8 908.66,-149.8"/>
<text text-anchor="middle" x="867" y="-127.6" font-family="Times,serif" font-size="14.00">AppModule</text>
</g>
<!-- AppComponent&#45;&gt;AppModule -->
<g id="edge1" class="edge">
<title>AppComponent&#45;&gt;AppModule</title>
<path fill="none" stroke="black" d="M1541,-85.08C1541,-106.12 1541,-137.8 1541,-137.8 1541,-137.8 918.91,-137.8 918.91,-137.8"/>
<polygon fill="black" stroke="black" points="918.91,-134.3 908.91,-137.8 918.91,-141.3 918.91,-134.3"/>
</g>
<!-- CategoriaComponent -->
<g id="node2" class="node">
<title>CategoriaComponent</title>
<polygon fill="#ffffb3" stroke="black" points="1469.75,-84.8 1334.25,-84.8 1334.25,-48.8 1469.75,-48.8 1469.75,-84.8"/>
<text text-anchor="middle" x="1402" y="-62.6" font-family="Times,serif" font-size="14.00">CategoriaComponent</text>
</g>
<!-- CategoriaComponent&#45;&gt;AppModule -->
<g id="edge2" class="edge">
<title>CategoriaComponent&#45;&gt;AppModule</title>
<path fill="none" stroke="black" d="M1402,-84.91C1402,-104.14 1402,-131.8 1402,-131.8 1402,-131.8 918.98,-131.8 918.98,-131.8"/>
<polygon fill="black" stroke="black" points="918.98,-128.3 908.98,-131.8 918.98,-135.3 918.98,-128.3"/>
</g>
<!-- DatosCategoriasComponent -->
<g id="node3" class="node">
<title>DatosCategoriasComponent</title>
<polygon fill="#ffffb3" stroke="black" points="1315.86,-84.8 1142.14,-84.8 1142.14,-48.8 1315.86,-48.8 1315.86,-84.8"/>
<text text-anchor="middle" x="1229" y="-62.6" font-family="Times,serif" font-size="14.00">DatosCategoriasComponent</text>
</g>
<!-- DatosCategoriasComponent&#45;&gt;AppModule -->
<g id="edge3" class="edge">
<title>DatosCategoriasComponent&#45;&gt;AppModule</title>
<path fill="none" stroke="black" d="M1229,-84.82C1229,-102.17 1229,-125.8 1229,-125.8 1229,-125.8 918.88,-125.8 918.88,-125.8"/>
<polygon fill="black" stroke="black" points="918.88,-122.3 908.88,-125.8 918.88,-129.3 918.88,-122.3"/>
</g>
<!-- HomeComponent -->
<g id="node4" class="node">
<title>HomeComponent</title>
<polygon fill="#ffffb3" stroke="black" points="1123.55,-84.8 1008.45,-84.8 1008.45,-48.8 1123.55,-48.8 1123.55,-84.8"/>
<text text-anchor="middle" x="1066" y="-62.6" font-family="Times,serif" font-size="14.00">HomeComponent</text>
</g>
<!-- HomeComponent&#45;&gt;AppModule -->
<g id="edge4" class="edge">
<title>HomeComponent&#45;&gt;AppModule</title>
<path fill="none" stroke="black" d="M1066,-85.04C1066,-100.37 1066,-119.8 1066,-119.8 1066,-119.8 918.72,-119.8 918.72,-119.8"/>
<polygon fill="black" stroke="black" points="918.72,-116.3 908.72,-119.8 918.72,-123.3 918.72,-116.3"/>
</g>
<!-- LoginComponent -->
<g id="node5" class="node">
<title>LoginComponent</title>
<polygon fill="#ffffb3" stroke="black" points="990.27,-84.8 875.73,-84.8 875.73,-48.8 990.27,-48.8 990.27,-84.8"/>
<text text-anchor="middle" x="933" y="-62.6" font-family="Times,serif" font-size="14.00">LoginComponent</text>
</g>
<!-- LoginComponent&#45;&gt;AppModule -->
<g id="edge5" class="edge">
<title>LoginComponent&#45;&gt;AppModule</title>
<path fill="none" stroke="black" d="M892.22,-84.91C892.22,-84.91 892.22,-103.79 892.22,-103.79"/>
<polygon fill="black" stroke="black" points="888.72,-103.79 892.22,-113.79 895.72,-103.79 888.72,-103.79"/>
</g>
<!-- MenuComponent -->
<g id="node6" class="node">
<title>MenuComponent</title>
<polygon fill="#ffffb3" stroke="black" points="857.99,-84.8 744.01,-84.8 744.01,-48.8 857.99,-48.8 857.99,-84.8"/>
<text text-anchor="middle" x="801" y="-62.6" font-family="Times,serif" font-size="14.00">MenuComponent</text>
</g>
<!-- MenuComponent&#45;&gt;AppModule -->
<g id="edge6" class="edge">
<title>MenuComponent&#45;&gt;AppModule</title>
<path fill="none" stroke="black" d="M841.58,-84.91C841.58,-84.91 841.58,-103.79 841.58,-103.79"/>
<polygon fill="black" stroke="black" points="838.08,-103.79 841.58,-113.79 845.08,-103.79 838.08,-103.79"/>
</g>
<!-- ModalComponent -->
<g id="node7" class="node">
<title>ModalComponent</title>
<polygon fill="#ffffb3" stroke="black" points="725.88,-84.8 608.12,-84.8 608.12,-48.8 725.88,-48.8 725.88,-84.8"/>
<text text-anchor="middle" x="667" y="-62.6" font-family="Times,serif" font-size="14.00">ModalComponent</text>
</g>
<!-- ModalComponent&#45;&gt;AppModule -->
<g id="edge7" class="edge">
<title>ModalComponent&#45;&gt;AppModule</title>
<path fill="none" stroke="black" d="M667,-85.04C667,-100.37 667,-119.8 667,-119.8 667,-119.8 815.07,-119.8 815.07,-119.8"/>
<polygon fill="black" stroke="black" points="815.07,-123.3 825.07,-119.8 815.07,-116.3 815.07,-123.3"/>
</g>
<!-- PerfilComponent -->
<g id="node8" class="node">
<title>PerfilComponent</title>
<polygon fill="#ffffb3" stroke="black" points="590.44,-84.8 477.56,-84.8 477.56,-48.8 590.44,-48.8 590.44,-84.8"/>
<text text-anchor="middle" x="534" y="-62.6" font-family="Times,serif" font-size="14.00">PerfilComponent</text>
</g>
<!-- PerfilComponent&#45;&gt;AppModule -->
<g id="edge8" class="edge">
<title>PerfilComponent&#45;&gt;AppModule</title>
<path fill="none" stroke="black" d="M534,-84.82C534,-102.17 534,-125.8 534,-125.8 534,-125.8 815.16,-125.8 815.16,-125.8"/>
<polygon fill="black" stroke="black" points="815.16,-129.3 825.16,-125.8 815.16,-122.3 815.16,-129.3"/>
</g>
<!-- RegistroComponent -->
<g id="node9" class="node">
<title>RegistroComponent</title>
<polygon fill="#ffffb3" stroke="black" points="459.27,-84.8 330.73,-84.8 330.73,-48.8 459.27,-48.8 459.27,-84.8"/>
<text text-anchor="middle" x="395" y="-62.6" font-family="Times,serif" font-size="14.00">RegistroComponent</text>
</g>
<!-- RegistroComponent&#45;&gt;AppModule -->
<g id="edge9" class="edge">
<title>RegistroComponent&#45;&gt;AppModule</title>
<path fill="none" stroke="black" d="M395,-84.91C395,-104.14 395,-131.8 395,-131.8 395,-131.8 815.11,-131.8 815.11,-131.8"/>
<polygon fill="black" stroke="black" points="815.11,-135.3 825.11,-131.8 815.11,-128.3 815.11,-135.3"/>
</g>
<!-- UbicacionComponent -->
<g id="node10" class="node">
<title>UbicacionComponent</title>
<polygon fill="#ffffb3" stroke="black" points="312.36,-84.8 173.64,-84.8 173.64,-48.8 312.36,-48.8 312.36,-84.8"/>
<text text-anchor="middle" x="243" y="-62.6" font-family="Times,serif" font-size="14.00">UbicacionComponent</text>
</g>
<!-- UbicacionComponent&#45;&gt;AppModule -->
<g id="edge10" class="edge">
<title>UbicacionComponent&#45;&gt;AppModule</title>
<path fill="none" stroke="black" d="M243,-85.08C243,-106.12 243,-137.8 243,-137.8 243,-137.8 815.09,-137.8 815.09,-137.8"/>
<polygon fill="black" stroke="black" points="815.09,-141.3 825.09,-137.8 815.09,-134.3 815.09,-141.3"/>
</g>
<!-- UsuariosComponent -->
<g id="node11" class="node">
<title>UsuariosComponent</title>
<polygon fill="#ffffb3" stroke="black" points="155.6,-84.8 24.4,-84.8 24.4,-48.8 155.6,-48.8 155.6,-84.8"/>
<text text-anchor="middle" x="90" y="-62.6" font-family="Times,serif" font-size="14.00">UsuariosComponent</text>
</g>
<!-- UsuariosComponent&#45;&gt;AppModule -->
<g id="edge11" class="edge">
<title>UsuariosComponent&#45;&gt;AppModule</title>
<path fill="none" stroke="black" d="M90,-85.05C90,-107.82 90,-143.8 90,-143.8 90,-143.8 815.23,-143.8 815.23,-143.8"/>
<polygon fill="black" stroke="black" points="815.23,-147.3 825.23,-143.8 815.23,-140.3 815.23,-147.3"/>
</g>
<!-- AppComponent  -->
<g id="node14" class="node">
<title>AppComponent </title>
<polygon fill="#80b1d3" stroke="black" points="921.44,-214.8 812.56,-214.8 812.56,-178.8 921.44,-178.8 921.44,-214.8"/>
<text text-anchor="middle" x="867" y="-192.6" font-family="Times,serif" font-size="14.00">AppComponent </text>
</g>
<!-- AppModule&#45;&gt;AppComponent  -->
<g id="edge13" class="edge">
<title>AppModule&#45;&gt;AppComponent </title>
<path fill="none" stroke="black" stroke-dasharray="1,5" d="M867,-149.91C867,-149.91 867,-168.79 867,-168.79"/>
<polygon fill="black" stroke="black" points="863.5,-168.79 867,-178.79 870.5,-168.79 863.5,-168.79"/>
</g>
<!-- AppRoutingModule -->
<g id="node13" class="node">
<title>AppRoutingModule</title>
<polygon fill="#8dd3c7" stroke="black" points="1746.28,-84.8 1743.28,-88.8 1722.28,-88.8 1719.28,-84.8 1617.72,-84.8 1617.72,-48.8 1746.28,-48.8 1746.28,-84.8"/>
<text text-anchor="middle" x="1682" y="-62.6" font-family="Times,serif" font-size="14.00">AppRoutingModule</text>
</g>
<!-- AppRoutingModule&#45;&gt;AppModule -->
<g id="edge12" class="edge">
<title>AppRoutingModule&#45;&gt;AppModule</title>
<path fill="none" stroke="black" d="M1682,-85.05C1682,-107.82 1682,-143.8 1682,-143.8 1682,-143.8 918.82,-143.8 918.82,-143.8"/>
<polygon fill="black" stroke="black" points="918.82,-140.3 908.82,-143.8 918.82,-147.3 918.82,-140.3"/>
</g>
</g>
</svg>
