<?xml version="1.0" encoding="UTF-8" standalone="no"?>
<!DOCTYPE svg PUBLIC "-//W3C//DTD SVG 1.1//EN"
 "http://www.w3.org/Graphics/SVG/1.1/DTD/svg11.dtd">
<!-- Generated by graphviz version 3.0.0 (20220226.1711)
 -->
<!-- Title: dependencies Pages: 1 -->
<svg width="2525pt" height="247pt"
 viewBox="0.00 0.00 2525.00 246.80" xmlns="http://www.w3.org/2000/svg" xmlns:xlink="http://www.w3.org/1999/xlink">
<g id="graph0" class="graph" transform="scale(1 1) rotate(0) translate(4 242.8)">
<title>dependencies</title>
<polygon fill="white" stroke="transparent" points="-4,4 -4,-242.8 2521,-242.8 2521,4 -4,4"/>
<text text-anchor="middle" x="1258.5" y="-8.2" font-family="sans-serif" font-size="14.00">dependencies</text>
<g id="clust1" class="cluster">
<title>cluster_AppModule</title>
<polygon fill="none" stroke="black" stroke-dasharray="1,5" points="8,-32.8 8,-230.8 2509,-230.8 2509,-32.8 8,-32.8"/>
</g>
<g id="clust18" class="cluster">
<title>cluster_AppModule_imports</title>
<polygon fill="none" stroke="black" points="2357,-40.8 2357,-92.8 2501,-92.8 2501,-40.8 2357,-40.8"/>
</g>
<g id="clust20" class="cluster">
<title>cluster_AppModule_bootstrap</title>
<polygon fill="none" stroke="black" points="1103,-170.8 1103,-222.8 1227,-222.8 1227,-170.8 1103,-170.8"/>
</g>
<g id="clust2" class="cluster">
<title>cluster_AppModule_declarations</title>
<polygon fill="none" stroke="black" points="16,-40.8 16,-92.8 2349,-92.8 2349,-40.8 16,-40.8"/>
</g>
<!-- AppComponent -->
<g id="node1" class="node">
<title>AppComponent</title>
<polygon fill="#ffffb3" stroke="black" points="2340.94,-84.8 2235.06,-84.8 2235.06,-48.8 2340.94,-48.8 2340.94,-84.8"/>
<text text-anchor="middle" x="2288" y="-62.6" font-family="Times,serif" font-size="14.00">AppComponent</text>
</g>
<!-- AppModule -->
<g id="node16" class="node">
<title>AppModule</title>
<polygon fill="#8dd3c7" stroke="black" points="1206.66,-149.8 1203.66,-153.8 1182.66,-153.8 1179.66,-149.8 1123.34,-149.8 1123.34,-113.8 1206.66,-113.8 1206.66,-149.8"/>
<text text-anchor="middle" x="1165" y="-127.6" font-family="Times,serif" font-size="14.00">AppModule</text>
</g>
<!-- AppComponent&#45;&gt;AppModule -->
<g id="edge1" class="edge">
<title>AppComponent&#45;&gt;AppModule</title>
<path fill="none" stroke="black" d="M2288,-85.09C2288,-107.01 2288,-140.8 2288,-140.8 2288,-140.8 1216.97,-140.8 1216.97,-140.8"/>
<polygon fill="black" stroke="black" points="1216.97,-137.3 1206.97,-140.8 1216.97,-144.3 1216.97,-137.3"/>
</g>
<!-- CategoriaComponent -->
<g id="node2" class="node">
<title>CategoriaComponent</title>
<polygon fill="#ffffb3" stroke="black" points="2216.75,-84.8 2081.25,-84.8 2081.25,-48.8 2216.75,-48.8 2216.75,-84.8"/>
<text text-anchor="middle" x="2149" y="-62.6" font-family="Times,serif" font-size="14.00">CategoriaComponent</text>
</g>
<!-- CategoriaComponent&#45;&gt;AppModule -->
<g id="edge2" class="edge">
<title>CategoriaComponent&#45;&gt;AppModule</title>
<path fill="none" stroke="black" d="M2149,-84.83C2149,-105.57 2149,-136.8 2149,-136.8 2149,-136.8 1216.97,-136.8 1216.97,-136.8"/>
<polygon fill="black" stroke="black" points="1216.97,-133.3 1206.97,-136.8 1216.97,-140.3 1216.97,-133.3"/>
</g>
<!-- CrearEventoComponent -->
<g id="node3" class="node">
<title>CrearEventoComponent</title>
<polygon fill="#ffffb3" stroke="black" points="2063.08,-84.8 1910.92,-84.8 1910.92,-48.8 2063.08,-48.8 2063.08,-84.8"/>
<text text-anchor="middle" x="1987" y="-62.6" font-family="Times,serif" font-size="14.00">CrearEventoComponent</text>
</g>
<!-- CrearEventoComponent&#45;&gt;AppModule -->
<g id="edge3" class="edge">
<title>CrearEventoComponent&#45;&gt;AppModule</title>
<path fill="none" stroke="black" d="M1987,-84.91C1987,-104.14 1987,-131.8 1987,-131.8 1987,-131.8 1216.89,-131.8 1216.89,-131.8"/>
<polygon fill="black" stroke="black" points="1216.89,-128.3 1206.89,-131.8 1216.89,-135.3 1216.89,-128.3"/>
</g>
<!-- DatosCategoriasComponent -->
<g id="node4" class="node">
<title>DatosCategoriasComponent</title>
<polygon fill="#ffffb3" stroke="black" points="1892.86,-84.8 1719.14,-84.8 1719.14,-48.8 1892.86,-48.8 1892.86,-84.8"/>
<text text-anchor="middle" x="1806" y="-62.6" font-family="Times,serif" font-size="14.00">DatosCategoriasComponent</text>
</g>
<!-- DatosCategoriasComponent&#45;&gt;AppModule -->
<g id="edge4" class="edge">
<title>DatosCategoriasComponent&#45;&gt;AppModule</title>
<path fill="none" stroke="black" d="M1806,-85.1C1806,-103.07 1806,-127.8 1806,-127.8 1806,-127.8 1217.06,-127.8 1217.06,-127.8"/>
<polygon fill="black" stroke="black" points="1217.06,-124.3 1207.06,-127.8 1217.06,-131.3 1217.06,-124.3"/>
</g>
<!-- DatosSubcategoriasComponent -->
<g id="node5" class="node">
<title>DatosSubcategoriasComponent</title>
<polygon fill="#ffffb3" stroke="black" points="1701.03,-84.8 1508.97,-84.8 1508.97,-48.8 1701.03,-48.8 1701.03,-84.8"/>
<text text-anchor="middle" x="1605" y="-62.6" font-family="Times,serif" font-size="14.00">DatosSubcategoriasComponent</text>
</g>
<!-- DatosSubcategoriasComponent&#45;&gt;AppModule -->
<g id="edge5" class="edge">
<title>DatosSubcategoriasComponent&#45;&gt;AppModule</title>
<path fill="none" stroke="black" d="M1605,-84.83C1605,-101.2 1605,-122.8 1605,-122.8 1605,-122.8 1216.79,-122.8 1216.79,-122.8"/>
<polygon fill="black" stroke="black" points="1216.79,-119.3 1206.79,-122.8 1216.79,-126.3 1216.79,-119.3"/>
</g>
<!-- DatosUbicacionesComponent -->
<g id="node6" class="node">
<title>DatosUbicacionesComponent</title>
<polygon fill="#ffffb3" stroke="black" points="1490.69,-84.8 1307.31,-84.8 1307.31,-48.8 1490.69,-48.8 1490.69,-84.8"/>
<text text-anchor="middle" x="1399" y="-62.6" font-family="Times,serif" font-size="14.00">DatosUbicacionesComponent</text>
</g>
<!-- DatosUbicacionesComponent&#45;&gt;AppModule -->
<g id="edge6" class="edge">
<title>DatosUbicacionesComponent&#45;&gt;AppModule</title>
<path fill="none" stroke="black" d="M1399,-84.99C1399,-99.98 1399,-118.8 1399,-118.8 1399,-118.8 1216.83,-118.8 1216.83,-118.8"/>
<polygon fill="black" stroke="black" points="1216.83,-115.3 1206.83,-118.8 1216.83,-122.3 1216.83,-115.3"/>
</g>
<!-- HomeComponent -->
<g id="node7" class="node">
<title>HomeComponent</title>
<polygon fill="#ffffb3" stroke="black" points="1289.55,-84.8 1174.45,-84.8 1174.45,-48.8 1289.55,-48.8 1289.55,-84.8"/>
<text text-anchor="middle" x="1232" y="-62.6" font-family="Times,serif" font-size="14.00">HomeComponent</text>
</g>
<!-- HomeComponent&#45;&gt;AppModule -->
<g id="edge7" class="edge">
<title>HomeComponent&#45;&gt;AppModule</title>
<path fill="none" stroke="black" d="M1190.53,-84.91C1190.53,-84.91 1190.53,-103.79 1190.53,-103.79"/>
<polygon fill="black" stroke="black" points="1187.03,-103.79 1190.53,-113.79 1194.03,-103.79 1187.03,-103.79"/>
</g>
<!-- LoginComponent -->
<g id="node8" class="node">
<title>LoginComponent</title>
<polygon fill="#ffffb3" stroke="black" points="1156.27,-84.8 1041.73,-84.8 1041.73,-48.8 1156.27,-48.8 1156.27,-84.8"/>
<text text-anchor="middle" x="1099" y="-62.6" font-family="Times,serif" font-size="14.00">LoginComponent</text>
</g>
<!-- LoginComponent&#45;&gt;AppModule -->
<g id="edge8" class="edge">
<title>LoginComponent&#45;&gt;AppModule</title>
<path fill="none" stroke="black" d="M1139.78,-84.91C1139.78,-84.91 1139.78,-103.79 1139.78,-103.79"/>
<polygon fill="black" stroke="black" points="1136.28,-103.79 1139.78,-113.79 1143.28,-103.79 1136.28,-103.79"/>
</g>
<!-- MenuComponent -->
<g id="node9" class="node">
<title>MenuComponent</title>
<polygon fill="#ffffb3" stroke="black" points="1023.99,-84.8 910.01,-84.8 910.01,-48.8 1023.99,-48.8 1023.99,-84.8"/>
<text text-anchor="middle" x="967" y="-62.6" font-family="Times,serif" font-size="14.00">MenuComponent</text>
</g>
<!-- MenuComponent&#45;&gt;AppModule -->
<g id="edge9" class="edge">
<title>MenuComponent&#45;&gt;AppModule</title>
<path fill="none" stroke="black" d="M967,-84.99C967,-99.98 967,-118.8 967,-118.8 967,-118.8 1113.01,-118.8 1113.01,-118.8"/>
<polygon fill="black" stroke="black" points="1113.01,-122.3 1123.01,-118.8 1113.01,-115.3 1113.01,-122.3"/>
</g>
<!-- MisEventosComponent -->
<g id="node10" class="node">
<title>MisEventosComponent</title>
<polygon fill="#ffffb3" stroke="black" points="892.22,-84.8 743.78,-84.8 743.78,-48.8 892.22,-48.8 892.22,-84.8"/>
<text text-anchor="middle" x="818" y="-62.6" font-family="Times,serif" font-size="14.00">MisEventosComponent</text>
</g>
<!-- MisEventosComponent&#45;&gt;AppModule -->
<g id="edge10" class="edge">
<title>MisEventosComponent&#45;&gt;AppModule</title>
<path fill="none" stroke="black" d="M818,-84.83C818,-101.2 818,-122.8 818,-122.8 818,-122.8 1113.14,-122.8 1113.14,-122.8"/>
<polygon fill="black" stroke="black" points="1113.14,-126.3 1123.14,-122.8 1113.14,-119.3 1113.14,-126.3"/>
</g>
<!-- ModalComponent -->
<g id="node11" class="node">
<title>ModalComponent</title>
<polygon fill="#ffffb3" stroke="black" points="725.88,-84.8 608.12,-84.8 608.12,-48.8 725.88,-48.8 725.88,-84.8"/>
<text text-anchor="middle" x="667" y="-62.6" font-family="Times,serif" font-size="14.00">ModalComponent</text>
</g>
<!-- ModalComponent&#45;&gt;AppModule -->
<g id="edge11" class="edge">
<title>ModalComponent&#45;&gt;AppModule</title>
<path fill="none" stroke="black" d="M667,-85.1C667,-103.07 667,-127.8 667,-127.8 667,-127.8 1112.97,-127.8 1112.97,-127.8"/>
<polygon fill="black" stroke="black" points="1112.97,-131.3 1122.97,-127.8 1112.97,-124.3 1112.97,-131.3"/>
</g>
<!-- PerfilComponent -->
<g id="node12" class="node">
<title>PerfilComponent</title>
<polygon fill="#ffffb3" stroke="black" points="590.44,-84.8 477.56,-84.8 477.56,-48.8 590.44,-48.8 590.44,-84.8"/>
<text text-anchor="middle" x="534" y="-62.6" font-family="Times,serif" font-size="14.00">PerfilComponent</text>
</g>
<!-- PerfilComponent&#45;&gt;AppModule -->
<g id="edge12" class="edge">
<title>PerfilComponent&#45;&gt;AppModule</title>
<path fill="none" stroke="black" d="M534,-84.91C534,-104.14 534,-131.8 534,-131.8 534,-131.8 1113.11,-131.8 1113.11,-131.8"/>
<polygon fill="black" stroke="black" points="1113.11,-135.3 1123.11,-131.8 1113.11,-128.3 1113.11,-135.3"/>
</g>
<!-- RegistroComponent -->
<g id="node13" class="node">
<title>RegistroComponent</title>
<polygon fill="#ffffb3" stroke="black" points="459.27,-84.8 330.73,-84.8 330.73,-48.8 459.27,-48.8 459.27,-84.8"/>
<text text-anchor="middle" x="395" y="-62.6" font-family="Times,serif" font-size="14.00">RegistroComponent</text>
</g>
<!-- RegistroComponent&#45;&gt;AppModule -->
<g id="edge13" class="edge">
<title>RegistroComponent&#45;&gt;AppModule</title>
<path fill="none" stroke="black" d="M395,-84.83C395,-105.57 395,-136.8 395,-136.8 395,-136.8 1113.33,-136.8 1113.33,-136.8"/>
<polygon fill="black" stroke="black" points="1113.33,-140.3 1123.33,-136.8 1113.33,-133.3 1113.33,-140.3"/>
</g>
<!-- UbicacionComponent -->
<g id="node14" class="node">
<title>UbicacionComponent</title>
<polygon fill="#ffffb3" stroke="black" points="312.36,-84.8 173.64,-84.8 173.64,-48.8 312.36,-48.8 312.36,-84.8"/>
<text text-anchor="middle" x="243" y="-62.6" font-family="Times,serif" font-size="14.00">UbicacionComponent</text>
</g>
<!-- UbicacionComponent&#45;&gt;AppModule -->
<g id="edge14" class="edge">
<title>UbicacionComponent&#45;&gt;AppModule</title>
<path fill="none" stroke="black" d="M243,-85.09C243,-107.01 243,-140.8 243,-140.8 243,-140.8 1113.29,-140.8 1113.29,-140.8"/>
<polygon fill="black" stroke="black" points="1113.29,-144.3 1123.29,-140.8 1113.29,-137.3 1113.29,-144.3"/>
</g>
<!-- UsuariosComponent -->
<g id="node15" class="node">
<title>UsuariosComponent</title>
<polygon fill="#ffffb3" stroke="black" points="155.6,-84.8 24.4,-84.8 24.4,-48.8 155.6,-48.8 155.6,-84.8"/>
<text text-anchor="middle" x="90" y="-62.6" font-family="Times,serif" font-size="14.00">UsuariosComponent</text>
</g>
<!-- UsuariosComponent&#45;&gt;AppModule -->
<g id="edge15" class="edge">
<title>UsuariosComponent&#45;&gt;AppModule</title>
<path fill="none" stroke="black" d="M90,-85.12C90,-108.46 90,-145.8 90,-145.8 90,-145.8 1113.19,-145.8 1113.19,-145.8"/>
<polygon fill="black" stroke="black" points="1113.19,-149.3 1123.19,-145.8 1113.19,-142.3 1113.19,-149.3"/>
</g>
<!-- AppComponent  -->
<g id="node18" class="node">
<title>AppComponent </title>
<polygon fill="#80b1d3" stroke="black" points="1219.44,-214.8 1110.56,-214.8 1110.56,-178.8 1219.44,-178.8 1219.44,-214.8"/>
<text text-anchor="middle" x="1165" y="-192.6" font-family="Times,serif" font-size="14.00">AppComponent </text>
</g>
<!-- AppModule&#45;&gt;AppComponent  -->
<g id="edge17" class="edge">
<title>AppModule&#45;&gt;AppComponent </title>
<path fill="none" stroke="black" stroke-dasharray="1,5" d="M1165,-149.91C1165,-149.91 1165,-168.79 1165,-168.79"/>
<polygon fill="black" stroke="black" points="1161.5,-168.79 1165,-178.79 1168.5,-168.79 1161.5,-168.79"/>
</g>
<!-- AppRoutingModule -->
<g id="node17" class="node">
<title>AppRoutingModule</title>
<polygon fill="#8dd3c7" stroke="black" points="2493.28,-84.8 2490.28,-88.8 2469.28,-88.8 2466.28,-84.8 2364.72,-84.8 2364.72,-48.8 2493.28,-48.8 2493.28,-84.8"/>
<text text-anchor="middle" x="2429" y="-62.6" font-family="Times,serif" font-size="14.00">AppRoutingModule</text>
</g>
<!-- AppRoutingModule&#45;&gt;AppModule -->
<g id="edge16" class="edge">
<title>AppRoutingModule&#45;&gt;AppModule</title>
<path fill="none" stroke="black" d="M2429,-85.12C2429,-108.46 2429,-145.8 2429,-145.8 2429,-145.8 1216.7,-145.8 1216.7,-145.8"/>
<polygon fill="black" stroke="black" points="1216.7,-142.3 1206.7,-145.8 1216.7,-149.3 1216.7,-142.3"/>
</g>
</g>
</svg>
