<?xml version="1.0" encoding="UTF-8" standalone="no"?>
<!DOCTYPE svg PUBLIC "-//W3C//DTD SVG 1.1//EN"
 "http://www.w3.org/Graphics/SVG/1.1/DTD/svg11.dtd">
<!-- Generated by graphviz version 3.0.0 (20220226.1711)
 -->
<!-- Title: dependencies Pages: 1 -->
<svg width="2189pt" height="247pt"
 viewBox="0.00 0.00 2189.00 246.80" xmlns="http://www.w3.org/2000/svg" xmlns:xlink="http://www.w3.org/1999/xlink">
<g id="graph0" class="graph" transform="scale(1 1) rotate(0) translate(4 242.8)">
<title>dependencies</title>
<polygon fill="white" stroke="transparent" points="-4,4 -4,-242.8 2185,-242.8 2185,4 -4,4"/>
<text text-anchor="middle" x="1090.5" y="-8.2" font-family="sans-serif" font-size="14.00">dependencies</text>
<g id="clust1" class="cluster">
<title>cluster_AppModule</title>
<polygon fill="none" stroke="black" stroke-dasharray="1,5" points="8,-32.8 8,-230.8 2173,-230.8 2173,-32.8 8,-32.8"/>
</g>
<g id="clust16" class="cluster">
<title>cluster_AppModule_imports</title>
<polygon fill="none" stroke="black" points="2021,-40.8 2021,-92.8 2165,-92.8 2165,-40.8 2021,-40.8"/>
</g>
<g id="clust18" class="cluster">
<title>cluster_AppModule_bootstrap</title>
<polygon fill="none" stroke="black" points="937,-170.8 937,-222.8 1061,-222.8 1061,-170.8 937,-170.8"/>
</g>
<g id="clust2" class="cluster">
<title>cluster_AppModule_declarations</title>
<polygon fill="none" stroke="black" points="16,-40.8 16,-92.8 2013,-92.8 2013,-40.8 16,-40.8"/>
</g>
<!-- AppComponent -->
<g id="node1" class="node">
<title>AppComponent</title>
<polygon fill="#ffffb3" stroke="black" points="2004.94,-84.8 1899.06,-84.8 1899.06,-48.8 2004.94,-48.8 2004.94,-84.8"/>
<text text-anchor="middle" x="1952" y="-62.6" font-family="Times,serif" font-size="14.00">AppComponent</text>
</g>
<!-- AppModule -->
<g id="node14" class="node">
<title>AppModule</title>
<polygon fill="#8dd3c7" stroke="black" points="1040.66,-149.8 1037.66,-153.8 1016.66,-153.8 1013.66,-149.8 957.34,-149.8 957.34,-113.8 1040.66,-113.8 1040.66,-149.8"/>
<text text-anchor="middle" x="999" y="-127.6" font-family="Times,serif" font-size="14.00">AppModule</text>
</g>
<!-- AppComponent&#45;&gt;AppModule -->
<g id="edge1" class="edge">
<title>AppComponent&#45;&gt;AppModule</title>
<path fill="none" stroke="black" d="M1952,-84.84C1952,-106.46 1952,-139.8 1952,-139.8 1952,-139.8 1050.87,-139.8 1050.87,-139.8"/>
<polygon fill="black" stroke="black" points="1050.87,-136.3 1040.87,-139.8 1050.87,-143.3 1050.87,-136.3"/>
</g>
<!-- CategoriaComponent -->
<g id="node2" class="node">
<title>CategoriaComponent</title>
<polygon fill="#ffffb3" stroke="black" points="1880.75,-84.8 1745.25,-84.8 1745.25,-48.8 1880.75,-48.8 1880.75,-84.8"/>
<text text-anchor="middle" x="1813" y="-62.6" font-family="Times,serif" font-size="14.00">CategoriaComponent</text>
</g>
<!-- CategoriaComponent&#45;&gt;AppModule -->
<g id="edge2" class="edge">
<title>CategoriaComponent&#45;&gt;AppModule</title>
<path fill="none" stroke="black" d="M1813,-85.02C1813,-105.17 1813,-134.8 1813,-134.8 1813,-134.8 1050.77,-134.8 1050.77,-134.8"/>
<polygon fill="black" stroke="black" points="1050.77,-131.3 1040.77,-134.8 1050.77,-138.3 1050.77,-131.3"/>
</g>
<!-- DatosCategoriasComponent -->
<g id="node3" class="node">
<title>DatosCategoriasComponent</title>
<polygon fill="#ffffb3" stroke="black" points="1726.86,-84.8 1553.14,-84.8 1553.14,-48.8 1726.86,-48.8 1726.86,-84.8"/>
<text text-anchor="middle" x="1640" y="-62.6" font-family="Times,serif" font-size="14.00">DatosCategoriasComponent</text>
</g>
<!-- DatosCategoriasComponent&#45;&gt;AppModule -->
<g id="edge3" class="edge">
<title>DatosCategoriasComponent&#45;&gt;AppModule</title>
<path fill="none" stroke="black" d="M1640,-85.02C1640,-103.63 1640,-129.8 1640,-129.8 1640,-129.8 1051.06,-129.8 1051.06,-129.8"/>
<polygon fill="black" stroke="black" points="1051.06,-126.3 1041.06,-129.8 1051.06,-133.3 1051.06,-126.3"/>
</g>
<!-- DatosSubcategoriasComponent -->
<g id="node4" class="node">
<title>DatosSubcategoriasComponent</title>
<polygon fill="#ffffb3" stroke="black" points="1535.03,-84.8 1342.97,-84.8 1342.97,-48.8 1535.03,-48.8 1535.03,-84.8"/>
<text text-anchor="middle" x="1439" y="-62.6" font-family="Times,serif" font-size="14.00">DatosSubcategoriasComponent</text>
</g>
<!-- DatosSubcategoriasComponent&#45;&gt;AppModule -->
<g id="edge4" class="edge">
<title>DatosSubcategoriasComponent&#45;&gt;AppModule</title>
<path fill="none" stroke="black" d="M1439,-84.83C1439,-101.86 1439,-124.8 1439,-124.8 1439,-124.8 1050.79,-124.8 1050.79,-124.8"/>
<polygon fill="black" stroke="black" points="1050.79,-121.3 1040.79,-124.8 1050.79,-128.3 1050.79,-121.3"/>
</g>
<!-- DatosUbicacionesComponent -->
<g id="node5" class="node">
<title>DatosUbicacionesComponent</title>
<polygon fill="#ffffb3" stroke="black" points="1324.69,-84.8 1141.31,-84.8 1141.31,-48.8 1324.69,-48.8 1324.69,-84.8"/>
<text text-anchor="middle" x="1233" y="-62.6" font-family="Times,serif" font-size="14.00">DatosUbicacionesComponent</text>
</g>
<!-- DatosUbicacionesComponent&#45;&gt;AppModule -->
<g id="edge5" class="edge">
<title>DatosUbicacionesComponent&#45;&gt;AppModule</title>
<path fill="none" stroke="black" d="M1233,-85.04C1233,-100.37 1233,-119.8 1233,-119.8 1233,-119.8 1050.83,-119.8 1050.83,-119.8"/>
<polygon fill="black" stroke="black" points="1050.83,-116.3 1040.83,-119.8 1050.83,-123.3 1050.83,-116.3"/>
</g>
<!-- HomeComponent -->
<g id="node6" class="node">
<title>HomeComponent</title>
<polygon fill="#ffffb3" stroke="black" points="1123.55,-84.8 1008.45,-84.8 1008.45,-48.8 1123.55,-48.8 1123.55,-84.8"/>
<text text-anchor="middle" x="1066" y="-62.6" font-family="Times,serif" font-size="14.00">HomeComponent</text>
</g>
<!-- HomeComponent&#45;&gt;AppModule -->
<g id="edge6" class="edge">
<title>HomeComponent&#45;&gt;AppModule</title>
<path fill="none" stroke="black" d="M1024.53,-84.91C1024.53,-84.91 1024.53,-103.79 1024.53,-103.79"/>
<polygon fill="black" stroke="black" points="1021.03,-103.79 1024.53,-113.79 1028.03,-103.79 1021.03,-103.79"/>
</g>
<!-- LoginComponent -->
<g id="node7" class="node">
<title>LoginComponent</title>
<polygon fill="#ffffb3" stroke="black" points="990.27,-84.8 875.73,-84.8 875.73,-48.8 990.27,-48.8 990.27,-84.8"/>
<text text-anchor="middle" x="933" y="-62.6" font-family="Times,serif" font-size="14.00">LoginComponent</text>
</g>
<!-- LoginComponent&#45;&gt;AppModule -->
<g id="edge7" class="edge">
<title>LoginComponent&#45;&gt;AppModule</title>
<path fill="none" stroke="black" d="M973.78,-84.91C973.78,-84.91 973.78,-103.79 973.78,-103.79"/>
<polygon fill="black" stroke="black" points="970.28,-103.79 973.78,-113.79 977.28,-103.79 970.28,-103.79"/>
</g>
<!-- MenuComponent -->
<g id="node8" class="node">
<title>MenuComponent</title>
<polygon fill="#ffffb3" stroke="black" points="857.99,-84.8 744.01,-84.8 744.01,-48.8 857.99,-48.8 857.99,-84.8"/>
<text text-anchor="middle" x="801" y="-62.6" font-family="Times,serif" font-size="14.00">MenuComponent</text>
</g>
<!-- MenuComponent&#45;&gt;AppModule -->
<g id="edge8" class="edge">
<title>MenuComponent&#45;&gt;AppModule</title>
<path fill="none" stroke="black" d="M801,-85.04C801,-100.37 801,-119.8 801,-119.8 801,-119.8 947.01,-119.8 947.01,-119.8"/>
<polygon fill="black" stroke="black" points="947.01,-123.3 957.01,-119.8 947.01,-116.3 947.01,-123.3"/>
</g>
<!-- ModalComponent -->
<g id="node9" class="node">
<title>ModalComponent</title>
<polygon fill="#ffffb3" stroke="black" points="725.88,-84.8 608.12,-84.8 608.12,-48.8 725.88,-48.8 725.88,-84.8"/>
<text text-anchor="middle" x="667" y="-62.6" font-family="Times,serif" font-size="14.00">ModalComponent</text>
</g>
<!-- ModalComponent&#45;&gt;AppModule -->
<g id="edge9" class="edge">
<title>ModalComponent&#45;&gt;AppModule</title>
<path fill="none" stroke="black" d="M667,-84.83C667,-101.86 667,-124.8 667,-124.8 667,-124.8 947.29,-124.8 947.29,-124.8"/>
<polygon fill="black" stroke="black" points="947.29,-128.3 957.29,-124.8 947.29,-121.3 947.29,-128.3"/>
</g>
<!-- PerfilComponent -->
<g id="node10" class="node">
<title>PerfilComponent</title>
<polygon fill="#ffffb3" stroke="black" points="590.44,-84.8 477.56,-84.8 477.56,-48.8 590.44,-48.8 590.44,-84.8"/>
<text text-anchor="middle" x="534" y="-62.6" font-family="Times,serif" font-size="14.00">PerfilComponent</text>
</g>
<!-- PerfilComponent&#45;&gt;AppModule -->
<g id="edge10" class="edge">
<title>PerfilComponent&#45;&gt;AppModule</title>
<path fill="none" stroke="black" d="M534,-85.02C534,-103.63 534,-129.8 534,-129.8 534,-129.8 947.33,-129.8 947.33,-129.8"/>
<polygon fill="black" stroke="black" points="947.33,-133.3 957.33,-129.8 947.33,-126.3 947.33,-133.3"/>
</g>
<!-- RegistroComponent -->
<g id="node11" class="node">
<title>RegistroComponent</title>
<polygon fill="#ffffb3" stroke="black" points="459.27,-84.8 330.73,-84.8 330.73,-48.8 459.27,-48.8 459.27,-84.8"/>
<text text-anchor="middle" x="395" y="-62.6" font-family="Times,serif" font-size="14.00">RegistroComponent</text>
</g>
<!-- RegistroComponent&#45;&gt;AppModule -->
<g id="edge11" class="edge">
<title>RegistroComponent&#45;&gt;AppModule</title>
<path fill="none" stroke="black" d="M395,-85.02C395,-105.17 395,-134.8 395,-134.8 395,-134.8 947.01,-134.8 947.01,-134.8"/>
<polygon fill="black" stroke="black" points="947.01,-138.3 957.01,-134.8 947.01,-131.3 947.01,-138.3"/>
</g>
<!-- UbicacionComponent -->
<g id="node12" class="node">
<title>UbicacionComponent</title>
<polygon fill="#ffffb3" stroke="black" points="312.36,-84.8 173.64,-84.8 173.64,-48.8 312.36,-48.8 312.36,-84.8"/>
<text text-anchor="middle" x="243" y="-62.6" font-family="Times,serif" font-size="14.00">UbicacionComponent</text>
</g>
<!-- UbicacionComponent&#45;&gt;AppModule -->
<g id="edge12" class="edge">
<title>UbicacionComponent&#45;&gt;AppModule</title>
<path fill="none" stroke="black" d="M243,-84.84C243,-106.46 243,-139.8 243,-139.8 243,-139.8 947.28,-139.8 947.28,-139.8"/>
<polygon fill="black" stroke="black" points="947.28,-143.3 957.28,-139.8 947.28,-136.3 947.28,-143.3"/>
</g>
<!-- UsuariosComponent -->
<g id="node13" class="node">
<title>UsuariosComponent</title>
<polygon fill="#ffffb3" stroke="black" points="155.6,-84.8 24.4,-84.8 24.4,-48.8 155.6,-48.8 155.6,-84.8"/>
<text text-anchor="middle" x="90" y="-62.6" font-family="Times,serif" font-size="14.00">UsuariosComponent</text>
</g>
<!-- UsuariosComponent&#45;&gt;AppModule -->
<g id="edge13" class="edge">
<title>UsuariosComponent&#45;&gt;AppModule</title>
<path fill="none" stroke="black" d="M90,-84.89C90,-107.93 90,-144.8 90,-144.8 90,-144.8 947.28,-144.8 947.28,-144.8"/>
<polygon fill="black" stroke="black" points="947.28,-148.3 957.28,-144.8 947.28,-141.3 947.28,-148.3"/>
</g>
<!-- AppComponent  -->
<g id="node16" class="node">
<title>AppComponent </title>
<polygon fill="#80b1d3" stroke="black" points="1053.44,-214.8 944.56,-214.8 944.56,-178.8 1053.44,-178.8 1053.44,-214.8"/>
<text text-anchor="middle" x="999" y="-192.6" font-family="Times,serif" font-size="14.00">AppComponent </text>
</g>
<!-- AppModule&#45;&gt;AppComponent  -->
<g id="edge15" class="edge">
<title>AppModule&#45;&gt;AppComponent </title>
<path fill="none" stroke="black" stroke-dasharray="1,5" d="M999,-149.91C999,-149.91 999,-168.79 999,-168.79"/>
<polygon fill="black" stroke="black" points="995.5,-168.79 999,-178.79 1002.5,-168.79 995.5,-168.79"/>
</g>
<!-- AppRoutingModule -->
<g id="node15" class="node">
<title>AppRoutingModule</title>
<polygon fill="#8dd3c7" stroke="black" points="2157.28,-84.8 2154.28,-88.8 2133.28,-88.8 2130.28,-84.8 2028.72,-84.8 2028.72,-48.8 2157.28,-48.8 2157.28,-84.8"/>
<text text-anchor="middle" x="2093" y="-62.6" font-family="Times,serif" font-size="14.00">AppRoutingModule</text>
</g>
<!-- AppRoutingModule&#45;&gt;AppModule -->
<g id="edge14" class="edge">
<title>AppRoutingModule&#45;&gt;AppModule</title>
<path fill="none" stroke="black" d="M2093,-84.89C2093,-107.93 2093,-144.8 2093,-144.8 2093,-144.8 1050.88,-144.8 1050.88,-144.8"/>
<polygon fill="black" stroke="black" points="1050.88,-141.3 1040.88,-144.8 1050.88,-148.3 1050.88,-141.3"/>
</g>
</g>
</svg>
