<?xml version="1.0" encoding="UTF-8" standalone="no"?>
<!DOCTYPE svg PUBLIC "-//W3C//DTD SVG 1.1//EN"
 "http://www.w3.org/Graphics/SVG/1.1/DTD/svg11.dtd">
<!-- Generated by graphviz version 3.0.0 (20220226.1711)
 -->
<!-- Title: dependencies Pages: 1 -->
<svg width="2525pt" height="247pt"
 viewBox="0.00 0.00 2525.00 246.80" xmlns="http://www.w3.org/2000/svg" xmlns:xlink="http://www.w3.org/1999/xlink">
<g id="graph0" class="graph" transform="scale(1 1) rotate(0) translate(4 242.8)">
<title>dependencies</title>
<polygon fill="white" stroke="transparent" points="-4,4 -4,-242.8 2521,-242.8 2521,4 -4,4"/>
<text text-anchor="middle" x="1258.5" y="-8.2" font-family="sans-serif" font-size="14.00">dependencies</text>
<g id="clust1" class="cluster">
<title>cluster_AppModule</title>
<polygon fill="none" stroke="black" stroke-dasharray="1,5" points="8,-32.8 8,-230.8 2509,-230.8 2509,-32.8 8,-32.8"/>
</g>
<g id="clust2" class="cluster">
<title>cluster_AppModule_declarations</title>
<polygon fill="none" stroke="black" points="168,-40.8 168,-92.8 2501,-92.8 2501,-40.8 168,-40.8"/>
</g>
<g id="clust18" class="cluster">
<title>cluster_AppModule_imports</title>
<polygon fill="none" stroke="black" points="16,-40.8 16,-92.8 160,-92.8 160,-40.8 16,-40.8"/>
</g>
<g id="clust20" class="cluster">
<title>cluster_AppModule_bootstrap</title>
<polygon fill="none" stroke="black" points="1123,-170.8 1123,-222.8 1247,-222.8 1247,-170.8 1123,-170.8"/>
</g>
<!-- AppComponent -->
<g id="node1" class="node">
<title>AppComponent</title>
<polygon fill="#ffffb3" stroke="black" points="2492.94,-84.8 2387.06,-84.8 2387.06,-48.8 2492.94,-48.8 2492.94,-84.8"/>
<text text-anchor="middle" x="2440" y="-62.6" font-family="Times,serif" font-size="14.00">AppComponent</text>
</g>
<!-- AppModule -->
<g id="node16" class="node">
<title>AppModule</title>
<polygon fill="#8dd3c7" stroke="black" points="1226.66,-149.8 1223.66,-153.8 1202.66,-153.8 1199.66,-149.8 1143.34,-149.8 1143.34,-113.8 1226.66,-113.8 1226.66,-149.8"/>
<text text-anchor="middle" x="1185" y="-127.6" font-family="Times,serif" font-size="14.00">AppModule</text>
</g>
<!-- AppComponent&#45;&gt;AppModule -->
<g id="edge1" class="edge">
<title>AppComponent&#45;&gt;AppModule</title>
<path fill="none" stroke="black" d="M2440,-85.12C2440,-108.46 2440,-145.8 2440,-145.8 2440,-145.8 1236.76,-145.8 1236.76,-145.8"/>
<polygon fill="black" stroke="black" points="1236.76,-142.3 1226.76,-145.8 1236.76,-149.3 1236.76,-142.3"/>
</g>
<!-- CategoriaComponent -->
<g id="node2" class="node">
<title>CategoriaComponent</title>
<polygon fill="#ffffb3" stroke="black" points="2368.75,-84.8 2233.25,-84.8 2233.25,-48.8 2368.75,-48.8 2368.75,-84.8"/>
<text text-anchor="middle" x="2301" y="-62.6" font-family="Times,serif" font-size="14.00">CategoriaComponent</text>
</g>
<!-- CategoriaComponent&#45;&gt;AppModule -->
<g id="edge2" class="edge">
<title>CategoriaComponent&#45;&gt;AppModule</title>
<path fill="none" stroke="black" d="M2301,-85.09C2301,-107.01 2301,-140.8 2301,-140.8 2301,-140.8 1236.71,-140.8 1236.71,-140.8"/>
<polygon fill="black" stroke="black" points="1236.71,-137.3 1226.71,-140.8 1236.71,-144.3 1236.71,-137.3"/>
</g>
<!-- CrearEventoComponent -->
<g id="node3" class="node">
<title>CrearEventoComponent</title>
<polygon fill="#ffffb3" stroke="black" points="2215.08,-84.8 2062.92,-84.8 2062.92,-48.8 2215.08,-48.8 2215.08,-84.8"/>
<text text-anchor="middle" x="2139" y="-62.6" font-family="Times,serif" font-size="14.00">CrearEventoComponent</text>
</g>
<!-- CrearEventoComponent&#45;&gt;AppModule -->
<g id="edge3" class="edge">
<title>CrearEventoComponent&#45;&gt;AppModule</title>
<path fill="none" stroke="black" d="M2139,-84.83C2139,-105.57 2139,-136.8 2139,-136.8 2139,-136.8 1236.91,-136.8 1236.91,-136.8"/>
<polygon fill="black" stroke="black" points="1236.91,-133.3 1226.91,-136.8 1236.91,-140.3 1236.91,-133.3"/>
</g>
<!-- DatosCategoriasComponent -->
<g id="node4" class="node">
<title>DatosCategoriasComponent</title>
<polygon fill="#ffffb3" stroke="black" points="2044.86,-84.8 1871.14,-84.8 1871.14,-48.8 2044.86,-48.8 2044.86,-84.8"/>
<text text-anchor="middle" x="1958" y="-62.6" font-family="Times,serif" font-size="14.00">DatosCategoriasComponent</text>
</g>
<!-- DatosCategoriasComponent&#45;&gt;AppModule -->
<g id="edge4" class="edge">
<title>DatosCategoriasComponent&#45;&gt;AppModule</title>
<path fill="none" stroke="black" d="M1958,-84.91C1958,-104.14 1958,-131.8 1958,-131.8 1958,-131.8 1236.83,-131.8 1236.83,-131.8"/>
<polygon fill="black" stroke="black" points="1236.83,-128.3 1226.83,-131.8 1236.83,-135.3 1236.83,-128.3"/>
</g>
<!-- DatosSubcategoriasComponent -->
<g id="node5" class="node">
<title>DatosSubcategoriasComponent</title>
<polygon fill="#ffffb3" stroke="black" points="1853.03,-84.8 1660.97,-84.8 1660.97,-48.8 1853.03,-48.8 1853.03,-84.8"/>
<text text-anchor="middle" x="1757" y="-62.6" font-family="Times,serif" font-size="14.00">DatosSubcategoriasComponent</text>
</g>
<!-- DatosSubcategoriasComponent&#45;&gt;AppModule -->
<g id="edge5" class="edge">
<title>DatosSubcategoriasComponent&#45;&gt;AppModule</title>
<path fill="none" stroke="black" d="M1757,-85.1C1757,-103.07 1757,-127.8 1757,-127.8 1757,-127.8 1237.06,-127.8 1237.06,-127.8"/>
<polygon fill="black" stroke="black" points="1237.06,-124.3 1227.06,-127.8 1237.06,-131.3 1237.06,-124.3"/>
</g>
<!-- DatosUbicacionesComponent -->
<g id="node6" class="node">
<title>DatosUbicacionesComponent</title>
<polygon fill="#ffffb3" stroke="black" points="1642.69,-84.8 1459.31,-84.8 1459.31,-48.8 1642.69,-48.8 1642.69,-84.8"/>
<text text-anchor="middle" x="1551" y="-62.6" font-family="Times,serif" font-size="14.00">DatosUbicacionesComponent</text>
</g>
<!-- DatosUbicacionesComponent&#45;&gt;AppModule -->
<g id="edge6" class="edge">
<title>DatosUbicacionesComponent&#45;&gt;AppModule</title>
<path fill="none" stroke="black" d="M1551,-84.83C1551,-101.2 1551,-122.8 1551,-122.8 1551,-122.8 1236.98,-122.8 1236.98,-122.8"/>
<polygon fill="black" stroke="black" points="1236.98,-119.3 1226.98,-122.8 1236.98,-126.3 1236.98,-119.3"/>
</g>
<!-- HomeComponent -->
<g id="node7" class="node">
<title>HomeComponent</title>
<polygon fill="#ffffb3" stroke="black" points="1441.55,-84.8 1326.45,-84.8 1326.45,-48.8 1441.55,-48.8 1441.55,-84.8"/>
<text text-anchor="middle" x="1384" y="-62.6" font-family="Times,serif" font-size="14.00">HomeComponent</text>
</g>
<!-- HomeComponent&#45;&gt;AppModule -->
<g id="edge7" class="edge">
<title>HomeComponent&#45;&gt;AppModule</title>
<path fill="none" stroke="black" d="M1384,-84.99C1384,-99.98 1384,-118.8 1384,-118.8 1384,-118.8 1236.72,-118.8 1236.72,-118.8"/>
<polygon fill="black" stroke="black" points="1236.72,-115.3 1226.72,-118.8 1236.72,-122.3 1236.72,-115.3"/>
</g>
<!-- LoginComponent -->
<g id="node8" class="node">
<title>LoginComponent</title>
<polygon fill="#ffffb3" stroke="black" points="1308.27,-84.8 1193.73,-84.8 1193.73,-48.8 1308.27,-48.8 1308.27,-84.8"/>
<text text-anchor="middle" x="1251" y="-62.6" font-family="Times,serif" font-size="14.00">LoginComponent</text>
</g>
<!-- LoginComponent&#45;&gt;AppModule -->
<g id="edge8" class="edge">
<title>LoginComponent&#45;&gt;AppModule</title>
<path fill="none" stroke="black" d="M1210.22,-84.91C1210.22,-84.91 1210.22,-103.79 1210.22,-103.79"/>
<polygon fill="black" stroke="black" points="1206.72,-103.79 1210.22,-113.79 1213.72,-103.79 1206.72,-103.79"/>
</g>
<!-- MenuComponent -->
<g id="node9" class="node">
<title>MenuComponent</title>
<polygon fill="#ffffb3" stroke="black" points="1175.99,-84.8 1062.01,-84.8 1062.01,-48.8 1175.99,-48.8 1175.99,-84.8"/>
<text text-anchor="middle" x="1119" y="-62.6" font-family="Times,serif" font-size="14.00">MenuComponent</text>
</g>
<!-- MenuComponent&#45;&gt;AppModule -->
<g id="edge9" class="edge">
<title>MenuComponent&#45;&gt;AppModule</title>
<path fill="none" stroke="black" d="M1159.58,-84.91C1159.58,-84.91 1159.58,-103.79 1159.58,-103.79"/>
<polygon fill="black" stroke="black" points="1156.08,-103.79 1159.58,-113.79 1163.08,-103.79 1156.08,-103.79"/>
</g>
<!-- MisEventosComponent -->
<g id="node10" class="node">
<title>MisEventosComponent</title>
<polygon fill="#ffffb3" stroke="black" points="1044.22,-84.8 895.78,-84.8 895.78,-48.8 1044.22,-48.8 1044.22,-84.8"/>
<text text-anchor="middle" x="970" y="-62.6" font-family="Times,serif" font-size="14.00">MisEventosComponent</text>
</g>
<!-- MisEventosComponent&#45;&gt;AppModule -->
<g id="edge10" class="edge">
<title>MisEventosComponent&#45;&gt;AppModule</title>
<path fill="none" stroke="black" d="M970,-84.99C970,-99.98 970,-118.8 970,-118.8 970,-118.8 1133.29,-118.8 1133.29,-118.8"/>
<polygon fill="black" stroke="black" points="1133.29,-122.3 1143.29,-118.8 1133.29,-115.3 1133.29,-122.3"/>
</g>
<!-- ModalComponent -->
<g id="node11" class="node">
<title>ModalComponent</title>
<polygon fill="#ffffb3" stroke="black" points="877.88,-84.8 760.12,-84.8 760.12,-48.8 877.88,-48.8 877.88,-84.8"/>
<text text-anchor="middle" x="819" y="-62.6" font-family="Times,serif" font-size="14.00">ModalComponent</text>
</g>
<!-- ModalComponent&#45;&gt;AppModule -->
<g id="edge11" class="edge">
<title>ModalComponent&#45;&gt;AppModule</title>
<path fill="none" stroke="black" d="M819,-84.83C819,-101.2 819,-122.8 819,-122.8 819,-122.8 1133.02,-122.8 1133.02,-122.8"/>
<polygon fill="black" stroke="black" points="1133.02,-126.3 1143.02,-122.8 1133.02,-119.3 1133.02,-126.3"/>
</g>
<!-- PerfilComponent -->
<g id="node12" class="node">
<title>PerfilComponent</title>
<polygon fill="#ffffb3" stroke="black" points="742.44,-84.8 629.56,-84.8 629.56,-48.8 742.44,-48.8 742.44,-84.8"/>
<text text-anchor="middle" x="686" y="-62.6" font-family="Times,serif" font-size="14.00">PerfilComponent</text>
</g>
<!-- PerfilComponent&#45;&gt;AppModule -->
<g id="edge12" class="edge">
<title>PerfilComponent&#45;&gt;AppModule</title>
<path fill="none" stroke="black" d="M686,-85.1C686,-103.07 686,-127.8 686,-127.8 686,-127.8 1133.31,-127.8 1133.31,-127.8"/>
<polygon fill="black" stroke="black" points="1133.31,-131.3 1143.31,-127.8 1133.31,-124.3 1133.31,-131.3"/>
</g>
<!-- RegistroComponent -->
<g id="node13" class="node">
<title>RegistroComponent</title>
<polygon fill="#ffffb3" stroke="black" points="611.27,-84.8 482.73,-84.8 482.73,-48.8 611.27,-48.8 611.27,-84.8"/>
<text text-anchor="middle" x="547" y="-62.6" font-family="Times,serif" font-size="14.00">RegistroComponent</text>
</g>
<!-- RegistroComponent&#45;&gt;AppModule -->
<g id="edge13" class="edge">
<title>RegistroComponent&#45;&gt;AppModule</title>
<path fill="none" stroke="black" d="M547,-84.91C547,-104.14 547,-131.8 547,-131.8 547,-131.8 1133.14,-131.8 1133.14,-131.8"/>
<polygon fill="black" stroke="black" points="1133.14,-135.3 1143.14,-131.8 1133.14,-128.3 1133.14,-135.3"/>
</g>
<!-- UbicacionComponent -->
<g id="node14" class="node">
<title>UbicacionComponent</title>
<polygon fill="#ffffb3" stroke="black" points="464.36,-84.8 325.64,-84.8 325.64,-48.8 464.36,-48.8 464.36,-84.8"/>
<text text-anchor="middle" x="395" y="-62.6" font-family="Times,serif" font-size="14.00">UbicacionComponent</text>
</g>
<!-- UbicacionComponent&#45;&gt;AppModule -->
<g id="edge14" class="edge">
<title>UbicacionComponent&#45;&gt;AppModule</title>
<path fill="none" stroke="black" d="M395,-84.83C395,-105.57 395,-136.8 395,-136.8 395,-136.8 1133.08,-136.8 1133.08,-136.8"/>
<polygon fill="black" stroke="black" points="1133.08,-140.3 1143.08,-136.8 1133.08,-133.3 1133.08,-140.3"/>
</g>
<!-- UsuariosComponent -->
<g id="node15" class="node">
<title>UsuariosComponent</title>
<polygon fill="#ffffb3" stroke="black" points="307.6,-84.8 176.4,-84.8 176.4,-48.8 307.6,-48.8 307.6,-84.8"/>
<text text-anchor="middle" x="242" y="-62.6" font-family="Times,serif" font-size="14.00">UsuariosComponent</text>
</g>
<!-- UsuariosComponent&#45;&gt;AppModule -->
<g id="edge15" class="edge">
<title>UsuariosComponent&#45;&gt;AppModule</title>
<path fill="none" stroke="black" d="M242,-85.09C242,-107.01 242,-140.8 242,-140.8 242,-140.8 1133.26,-140.8 1133.26,-140.8"/>
<polygon fill="black" stroke="black" points="1133.26,-144.3 1143.26,-140.8 1133.26,-137.3 1133.26,-144.3"/>
</g>
<!-- AppComponent  -->
<g id="node18" class="node">
<title>AppComponent </title>
<polygon fill="#80b1d3" stroke="black" points="1239.44,-214.8 1130.56,-214.8 1130.56,-178.8 1239.44,-178.8 1239.44,-214.8"/>
<text text-anchor="middle" x="1185" y="-192.6" font-family="Times,serif" font-size="14.00">AppComponent </text>
</g>
<!-- AppModule&#45;&gt;AppComponent  -->
<g id="edge17" class="edge">
<title>AppModule&#45;&gt;AppComponent </title>
<path fill="none" stroke="black" stroke-dasharray="1,5" d="M1185,-149.91C1185,-149.91 1185,-168.79 1185,-168.79"/>
<polygon fill="black" stroke="black" points="1181.5,-168.79 1185,-178.79 1188.5,-168.79 1181.5,-168.79"/>
</g>
<!-- AppRoutingModule -->
<g id="node17" class="node">
<title>AppRoutingModule</title>
<polygon fill="#8dd3c7" stroke="black" points="152.28,-84.8 149.28,-88.8 128.28,-88.8 125.28,-84.8 23.72,-84.8 23.72,-48.8 152.28,-48.8 152.28,-84.8"/>
<text text-anchor="middle" x="88" y="-62.6" font-family="Times,serif" font-size="14.00">AppRoutingModule</text>
</g>
<!-- AppRoutingModule&#45;&gt;AppModule -->
<g id="edge16" class="edge">
<title>AppRoutingModule&#45;&gt;AppModule</title>
<path fill="none" stroke="black" d="M88,-85.12C88,-108.46 88,-145.8 88,-145.8 88,-145.8 1133.34,-145.8 1133.34,-145.8"/>
<polygon fill="black" stroke="black" points="1133.34,-149.3 1143.34,-145.8 1133.34,-142.3 1133.34,-149.3"/>
</g>
</g>
</svg>
